# Blender v2.92.0 OBJ File: ''
# www.blender.org
mtllib brilliant_cut.mtl
o Diamonds
v 0.000000 -0.000000 -0.425623
v 0.231734 -0.095988 -0.203960
v 0.344038 -0.344038 0.039752
v 0.095988 -0.231734 -0.203959
v 0.231734 0.095987 -0.203959
v 0.486543 -0.000000 0.039752
v 0.095988 0.231734 -0.203959
v 0.344038 0.344038 0.039752
v -0.095987 0.231734 -0.203959
v 0.000000 0.486543 0.039752
v -0.231734 0.095987 -0.203959
v -0.344038 0.344038 0.039752
v -0.095987 -0.231734 -0.203959
v -0.344038 -0.344038 0.039752
v -0.231734 -0.095988 -0.203959
v 0.000000 -0.254121 0.278289
v 0.000000 -0.344034 0.194309
v 0.142502 -0.344030 0.193730
v 0.179690 -0.179690 0.278289
v 0.241995 -0.241995 0.195992
v 0.344031 -0.142503 0.193729
v 0.254121 -0.000000 0.278289
v 0.344041 -0.000000 0.194303
v 0.344031 0.142502 0.193729
v 0.089845 0.216905 0.278289
v 0.179690 0.179690 0.278289
v 0.142502 0.344029 0.193730
v 0.000000 0.254120 0.278289
v 0.000000 0.344043 0.194300
v -0.142502 0.344029 0.193731
v -0.179690 0.179690 0.278289
v -0.242001 0.242001 0.195983
v -0.344027 0.142500 0.193733
v -0.254120 -0.000000 0.278289
v -0.344048 -0.000000 0.194296
v -0.344027 -0.142501 0.193733
v -0.179690 -0.179691 0.278289
v -0.241999 -0.242000 0.195986
v -0.142502 -0.344030 0.193730
v 0.344034 -0.344034 0.061209
v 0.186467 -0.450170 0.061210
v 0.186469 -0.450175 0.039752
v 0.486538 -0.000000 0.061209
v 0.450170 -0.186467 0.061210
v 0.450175 -0.186469 0.039752
v 0.344034 0.344034 0.061209
v 0.450170 0.186466 0.061210
v 0.450175 0.186468 0.039752
v 0.000000 0.486537 0.061209
v 0.186467 0.450170 0.061210
v 0.186469 0.450175 0.039752
v -0.344034 0.344034 0.061209
v -0.186466 0.450170 0.061210
v -0.186469 0.450175 0.039752
v -0.486538 -0.000000 0.061209
v -0.450170 0.186466 0.061210
v -0.450175 0.186468 0.039752
v -0.486543 -0.000000 0.039752
v -0.344034 -0.344034 0.061209
v -0.450170 -0.186467 0.061210
v -0.450175 -0.186469 0.039752
v 0.000000 -0.486538 0.061209
v -0.186466 -0.450170 0.061210
v -0.186468 -0.450175 0.039752
v 0.000000 -0.486543 0.039752
v 0.241999 0.241999 0.195987
v -0.216905 0.089844 0.278289
v 0.000000 -0.000000 0.278289
v -0.216905 -0.089845 0.278289
v -0.089846 -0.216905 0.278289
v 0.089845 -0.216906 0.278289
v 0.216905 -0.089845 0.278289
v 0.216905 0.089845 0.278289
v -0.089845 0.216905 0.278289
vt 0.000003 0.000000
vt 29.816038 71.982292
vt 106.866623 106.866631
vt 71.982285 29.816040
vt -29.816042 71.982292
vt -0.000009 151.132233
vt -71.982292 29.816036
vt -106.866638 106.866631
vt -71.982292 -29.816048
vt -151.132248 -0.000015
vt -29.816034 -71.982292
vt -106.866623 -106.866653
vt 71.982292 -29.816029
vt 106.866661 -106.866592
vt 29.816048 -71.982285
vt 78.935997 -0.000000
vt 106.865387 -0.000001
vt 106.863976 44.264519
vt 55.816177 55.816177
vt 75.169388 75.169388
vt 44.264679 106.864357
vt -0.000003 78.935997
vt -0.000005 106.867424
vt -44.264645 106.864372
vt -67.376068 27.908134
vt -55.816177 55.816177
vt -106.863922 44.264523
vt -78.935997 -0.000007
vt -106.868340 -0.000010
vt -106.863922 -44.264523
vt -55.816170 -55.816189
vt -75.171539 -75.171562
vt -44.264072 -106.863327
vt 0.000001 -78.935997
vt 0.000001 -106.869614
vt 44.264149 -106.863289
vt 55.816196 -55.816158
vt 75.170914 -75.170868
vt 106.863945 -44.264622
vt 106.865387 106.865395
vt 139.833755 57.921043
vt 139.835373 57.921715
vt -0.000009 151.130493
vt 57.921036 139.833771
vt 57.921703 139.835388
vt -106.865402 106.865395
vt -57.921051 139.833771
vt -57.921722 139.835388
vt -151.130508 -0.000015
vt -139.833786 57.921036
vt -139.835403 57.921703
vt -106.865387 -106.865417
vt -139.833786 -57.921066
vt -139.835388 -57.921734
vt -0.000000 -151.130493
vt -57.921043 -139.833786
vt -57.921711 -139.835403
vt -0.000000 -151.132233
vt 106.865425 -106.865349
vt 57.921062 -139.833755
vt 57.921730 -139.835373
vt 151.130478 -0.000001
vt 139.833786 -57.921021
vt 139.835388 -57.921692
vt 151.132217 -0.000001
vt -75.170746 75.170746
vt -27.907888 -67.376175
vt 0.000008 -0.000019
vt 27.907991 -67.376122
vt 67.376022 -27.908262
vt 67.376091 27.908083
vt 27.908106 67.376083
vt -27.908045 67.376106
vt -67.376068 -27.908125
vn 0.4888 -0.4888 -0.7227
vn 0.6912 0.0000 -0.7227
vn 0.4888 0.4888 -0.7227
vn 0.0000 0.6912 -0.7227
vn -0.4888 0.4888 -0.7227
vn -0.4888 -0.4888 -0.7227
vn 0.0030 -0.6826 0.7308
vn 0.4848 -0.4805 0.7308
vn 0.6826 0.0030 0.7308
vn 0.2004 0.4837 0.8520
vn -0.0030 0.6826 0.7308
vn -0.4848 0.4805 0.7308
vn -0.6826 -0.0030 0.7308
vn -0.4805 -0.4848 0.7308
vn 0.5587 -0.8294 0.0003
vn 0.9815 -0.1914 0.0003
vn 0.8294 0.5587 0.0003
vn 0.1914 0.9815 0.0003
vn -0.5587 0.8294 0.0003
vn -0.9815 0.1914 0.0003
vn -0.8294 -0.5587 0.0003
vn -0.1914 -0.9815 0.0003
vn 0.4049 -0.6011 -0.6891
vn 0.1914 -0.9815 0.0003
vn 0.8294 -0.5587 0.0003
vn 0.9815 0.1914 0.0003
vn 0.5587 0.8294 0.0003
vn -0.1914 0.9815 0.0003
vn -0.8294 0.5587 0.0003
vn -0.9815 -0.1914 0.0003
vn -0.5587 -0.8294 0.0003
vn 0.1387 -0.7113 -0.6891
vn -0.6912 0.0000 -0.7227
vn 0.0000 -0.6912 -0.7227
vn -0.4848 -0.4805 0.7308
vn -0.0030 -0.6826 0.7308
vn 0.4805 -0.4848 0.7308
vn 0.7480 -0.1459 0.6475
vn 0.4848 0.4805 0.7308
vn 0.0030 0.6826 0.7308
vn -0.4805 0.4848 0.7308
vn -0.6826 0.0030 0.7308
vn 0.0000 -0.0000 1.0000
vn 0.6321 -0.4258 0.6475
vn 0.7480 0.1459 0.6475
vn 0.4258 0.6321 0.6475
vn 0.4805 0.4848 0.7308
vn 0.1459 0.7480 0.6475
vn 0.6321 0.4258 0.6475
vn 0.6826 -0.0030 0.7308
vn 0.4258 -0.6321 0.6475
vn 0.4837 0.2004 0.8520
vn 0.4837 -0.2004 0.8520
vn 0.2004 -0.4837 0.8520
vn -0.2004 -0.4837 0.8520
vn -0.4837 -0.2004 0.8520
vn -0.4837 0.2004 0.8520
vn -0.2004 0.4837 0.8520
vn -0.1459 0.7480 0.6475
vn -0.4258 0.6321 0.6475
vn -0.6321 0.4258 0.6475
vn -0.7480 0.1459 0.6475
vn -0.7480 -0.1459 0.6475
vn -0.6321 -0.4258 0.6475
vn -0.4258 -0.6321 0.6475
vn -0.1459 -0.7480 0.6475
vn 0.1459 -0.7480 0.6475
vn -0.1387 -0.7113 -0.6891
vn -0.4049 -0.6011 -0.6891
vn -0.6011 -0.4049 -0.6891
vn -0.7113 -0.1387 -0.6891
vn -0.7113 0.1387 -0.6891
vn -0.6011 0.4049 -0.6891
vn -0.4049 0.6011 -0.6891
vn -0.1387 0.7113 -0.6891
vn 0.1387 0.7113 -0.6891
vn 0.4049 0.6011 -0.6891
vn 0.6011 0.4049 -0.6891
vn 0.7113 0.1387 -0.6891
vn 0.7113 -0.1387 -0.6891
vn 0.6011 -0.4049 -0.6891
usemtl wire_028028177
s off
f 1/1/1 2/2/1 3/3/1 4/4/1
f 1/1/2 5/5/2 6/6/2 2/2/2
f 1/1/3 7/7/3 8/8/3 5/5/3
f 1/1/4 9/9/4 10/10/4 7/7/4
f 1/1/5 11/11/5 12/12/5 9/9/5
f 1/1/6 13/13/6 14/14/6 15/15/6
f 16/16/7 17/17/7 18/18/7
f 19/19/8 20/20/8 21/21/8
f 22/22/9 23/23/9 24/24/9
f 25/25/10 26/26/10 27/27/10
f 28/28/11 29/29/11 30/30/11
f 31/31/12 32/32/12 33/33/12
f 34/34/13 35/35/13 36/36/13
f 37/37/14 38/38/14 39/39/14
f 40/40/15 41/41/15 42/42/15 3/3/15
f 43/43/16 44/44/16 45/45/16 6/6/16
f 46/46/17 47/47/17 48/48/17 8/8/17
f 49/49/18 50/50/18 51/51/18 10/10/18
f 52/52/19 53/53/19 54/54/19 12/12/19
f 55/55/20 56/56/20 57/57/20 58/58/20
f 59/59/21 60/60/21 61/61/21 14/14/21
f 62/62/22 63/63/22 64/64/22 65/65/22
f 3/3/23 42/42/23 4/4/23
f 62/62/24 65/65/24 42/42/24 41/41/24
f 40/40/25 3/3/25 45/45/25 44/44/25
f 43/43/26 6/6/26 48/48/26 47/47/26
f 46/46/27 8/8/27 51/51/27 50/50/27
f 49/49/28 10/10/28 54/54/28 53/53/28
f 52/52/29 12/12/29 57/57/29 56/56/29
f 55/55/30 58/58/30 61/61/30 60/60/30
f 59/59/31 14/14/31 64/64/31 63/63/31
f 42/42/32 65/65/32 4/4/32
f 1/1/33 15/15/33 58/58/33 11/11/33
f 65/65/34 13/13/34 1/1/34 4/4/34
f 38/38/35 37/37/35 36/36/35
f 17/17/36 16/16/36 39/39/36
f 20/20/37 19/19/37 18/18/37
f 44/44/38 43/43/38 21/21/38
f 66/66/39 26/26/39 24/24/39
f 29/29/40 28/28/40 27/27/40
f 32/32/41 31/31/41 30/30/41
f 35/35/42 34/34/42 33/33/42
f 31/31/43 67/67/43 68/68/43
f 67/67/43 34/34/43 68/68/43
f 34/34/43 69/69/43 68/68/43
f 69/69/43 37/37/43 68/68/43
f 37/37/43 70/70/43 68/68/43
f 70/70/43 16/16/43 68/68/43
f 16/16/43 71/71/43 68/68/43
f 71/71/43 19/19/43 68/68/43
f 19/19/43 72/72/43 68/68/43
f 72/72/43 22/22/43 68/68/43
f 22/22/43 73/73/43 68/68/43
f 73/73/43 26/26/43 68/68/43
f 26/26/43 25/25/43 68/68/43
f 25/25/43 28/28/43 68/68/43
f 28/28/43 74/74/43 68/68/43
f 74/74/43 31/31/43 68/68/43
f 40/40/44 44/44/44 21/21/44
f 43/43/45 47/47/45 24/24/45
f 46/46/46 50/50/46 27/27/46
f 28/28/10 25/25/10 27/27/10
f 26/26/47 66/66/47 27/27/47
f 27/27/48 50/50/48 49/49/48
f 24/24/49 47/47/49 46/46/49
f 23/23/50 22/22/50 21/21/50
f 18/18/51 41/41/51 40/40/51
f 26/26/52 73/73/52 24/24/52
f 24/24/52 73/73/52 22/22/52
f 22/22/53 72/72/53 21/21/53
f 21/21/53 72/72/53 19/19/53
f 19/19/54 71/71/54 18/18/54
f 18/18/54 71/71/54 16/16/54
f 16/16/55 70/70/55 39/39/55
f 39/39/55 70/70/55 37/37/55
f 37/37/56 69/69/56 36/36/56
f 36/36/56 69/69/56 34/34/56
f 34/34/57 67/67/57 33/33/57
f 33/33/57 67/67/57 31/31/57
f 31/31/58 74/74/58 30/30/58
f 30/30/58 74/74/58 28/28/58
f 49/49/59 53/53/59 30/30/59
f 30/30/60 53/53/60 52/52/60
f 52/52/61 56/56/61 33/33/61
f 33/33/62 56/56/62 55/55/62
f 55/55/63 60/60/63 36/36/63
f 36/36/64 60/60/64 59/59/64
f 59/59/65 63/63/65 39/39/65
f 39/39/66 63/63/66 62/62/66
f 62/62/67 41/41/67 18/18/67
f 65/65/68 64/64/68 13/13/68
f 13/13/69 64/64/69 14/14/69
f 14/14/70 61/61/70 15/15/70
f 15/15/71 61/61/71 58/58/71
f 58/58/72 57/57/72 11/11/72
f 11/11/73 57/57/73 12/12/73
f 12/12/74 54/54/74 9/9/74
f 9/9/75 54/54/75 10/10/75
f 10/10/76 51/51/76 7/7/76
f 7/7/77 51/51/77 8/8/77
f 8/8/78 48/48/78 5/5/78
f 5/5/79 48/48/79 6/6/79
f 6/6/80 45/45/80 2/2/80
f 2/2/81 45/45/81 3/3/81
f 36/36/35 59/59/35 38/38/35
f 38/38/14 59/59/14 39/39/14
f 39/39/36 62/62/36 17/17/36
f 17/17/7 62/62/7 18/18/7
f 18/18/37 40/40/37 20/20/37
f 20/20/8 40/40/8 21/21/8
f 21/21/50 43/43/50 23/23/50
f 23/23/9 43/43/9 24/24/9
f 24/24/39 46/46/39 66/66/39
f 66/66/47 46/46/47 27/27/47
f 27/27/40 49/49/40 29/29/40
f 29/29/11 49/49/11 30/30/11
f 30/30/41 52/52/41 32/32/41
f 32/32/12 52/52/12 33/33/12
f 33/33/42 55/55/42 35/35/42
f 35/35/13 55/55/13 36/36/13
