# Blender v2.92.0 OBJ File: ''
# www.blender.org
mtllib brilliant_cut_triangle.mtl
o 01_3-corner-triangle_quartz
v 0.000000 -0.317902 0.196962
v 0.275311 0.158951 0.196962
v -0.275311 0.158951 0.196962
v 0.275311 0.158951 0.196962
v 0.000000 0.302263 0.143798
v -0.275311 0.158951 0.196962
v 0.000000 0.302263 0.143798
v 0.275311 0.158951 0.196962
v 0.329347 0.254954 0.112500
v 0.182744 0.410414 0.023684
v 0.000000 0.302263 0.143798
v 0.182744 0.410414 0.023684
v -0.182744 0.410414 0.023684
v -0.329347 0.254954 0.112500
v 0.000000 0.302263 0.143798
v -0.182744 0.410414 0.023684
v -0.275311 0.158951 0.196962
v -0.329347 0.254954 0.112500
v -0.182744 0.410414 0.023684
v -0.408747 0.316801 0.023684
v -0.329347 0.254954 0.112500
v -0.478731 0.195585 0.023684
v -0.385470 0.157746 0.112500
v -0.275311 0.158951 0.196962
v -0.408747 0.316801 0.023684
v -0.385470 0.157746 0.112500
v -0.478731 0.195585 0.023684
v -0.446801 -0.046946 0.023684
v -0.261767 -0.151132 0.143798
v -0.275311 0.158951 0.196962
v -0.385470 0.157746 0.112500
v -0.446801 -0.046946 0.023684
v -0.261767 -0.151132 0.143798
v -0.446801 -0.046946 0.023684
v -0.264057 -0.363468 0.023684
v -0.261767 -0.151132 0.143798
v 0.000000 -0.317902 0.196962
v -0.275311 0.158951 0.196962
v 0.000000 -0.317902 0.196962
v -0.261767 -0.151132 0.143798
v -0.264057 -0.363468 0.023684
v -0.056123 -0.412700 0.112499
v -0.056123 -0.412700 0.112499
v -0.264057 -0.363468 0.023684
v -0.069984 -0.512385 0.023684
v 0.069984 -0.512385 0.023684
v 0.056123 -0.412700 0.112499
v -0.056123 -0.412700 0.112499
v -0.069984 -0.512385 0.023684
v 0.000000 -0.317902 0.196962
v 0.056123 -0.412700 0.112499
v 0.069984 -0.512385 0.023684
v 0.264057 -0.363468 0.023684
v 0.261767 -0.151132 0.143798
v 0.000000 -0.317902 0.196962
v 0.056123 -0.412700 0.112499
v 0.264057 -0.363468 0.023684
v 0.261767 -0.151132 0.143798
v 0.264057 -0.363468 0.023684
v 0.446801 -0.046946 0.023684
v 0.261767 -0.151132 0.143798
v 0.275311 0.158951 0.196962
v 0.000000 -0.317902 0.196962
v 0.385470 0.157746 0.112500
v 0.261767 -0.151132 0.143798
v 0.446801 -0.046946 0.023684
v 0.275311 0.158951 0.196962
v 0.385470 0.157746 0.112500
v 0.446801 -0.046946 0.023684
v 0.478731 0.195585 0.023684
v 0.478731 0.195585 0.023684
v 0.408747 0.316801 0.023684
v 0.329347 0.254954 0.112500
v 0.275311 0.158951 0.196962
v 0.385470 0.157746 0.112500
v 0.329347 0.254954 0.112500
v 0.408747 0.316801 0.023684
v 0.182744 0.410414 0.023684
v 0.478731 0.195585 0.023684
v 0.478731 0.195585 0.005228
v 0.408747 0.316801 0.005228
v 0.408747 0.316801 0.023684
v 0.182744 0.410414 0.005228
v 0.182744 0.410414 0.023684
v 0.408747 0.316801 0.023684
v 0.408747 0.316801 0.005228
v -0.182744 0.410414 0.005228
v -0.182744 0.410414 0.023684
v 0.182744 0.410414 0.023684
v 0.182744 0.410414 0.005228
v -0.408747 0.316801 0.005228
v -0.408747 0.316801 0.023684
v -0.182744 0.410414 0.023684
v -0.182744 0.410414 0.005228
v -0.478731 0.195585 0.005228
v -0.478731 0.195585 0.023684
v -0.408747 0.316801 0.023684
v -0.408747 0.316801 0.005228
v -0.446801 -0.046946 0.005228
v -0.446801 -0.046946 0.023684
v -0.478731 0.195585 0.023684
v -0.478731 0.195585 0.005228
v -0.264057 -0.363468 0.005227
v -0.264057 -0.363468 0.023684
v -0.446801 -0.046946 0.023684
v -0.446801 -0.046946 0.005228
v -0.264057 -0.363468 0.023684
v -0.264057 -0.363468 0.005227
v -0.069984 -0.512385 0.005227
v -0.069984 -0.512385 0.023684
v -0.069984 -0.512385 0.023684
v -0.069984 -0.512385 0.005227
v 0.069984 -0.512385 0.005227
v 0.069984 -0.512385 0.023684
v 0.069984 -0.512385 0.023684
v 0.069984 -0.512385 0.005227
v 0.264057 -0.363468 0.005227
v 0.264057 -0.363468 0.023684
v 0.264057 -0.363468 0.023684
v 0.264057 -0.363468 0.005227
v 0.446801 -0.046946 0.005228
v 0.446801 -0.046946 0.023684
v 0.446801 -0.046946 0.023684
v 0.446801 -0.046946 0.005228
v 0.478731 0.195585 0.005228
v 0.478731 0.195585 0.023684
v 0.231227 -0.133499 -0.143440
v 0.446801 -0.046946 0.005228
v 0.264057 -0.363468 0.005227
v 0.231227 -0.133499 -0.143440
v 0.000000 0.000000 -0.380454
v 0.446801 -0.046946 0.005228
v 0.251293 0.145084 -0.202138
v 0.446801 -0.046946 0.005228
v 0.000000 0.000000 -0.380454
v 0.231227 -0.133499 -0.143440
v 0.264057 -0.363468 0.005227
v 0.000000 0.000000 -0.380454
v 0.000000 -0.290168 -0.202138
v 0.000000 0.000000 -0.380454
v 0.264057 -0.363468 0.005227
v 0.478731 0.195585 0.005228
v 0.446801 -0.046946 0.005228
v 0.251293 0.145084 -0.202138
v 0.408747 0.316801 0.005228
v 0.478731 0.195585 0.005228
v 0.251293 0.145084 -0.202138
v 0.408747 0.316801 0.005228
v 0.251293 0.145084 -0.202138
v 0.182744 0.410414 0.005228
v 0.182744 0.410414 0.005228
v 0.000000 0.266998 -0.143440
v -0.182744 0.410414 0.005228
v 0.000000 0.266998 -0.143440
v 0.000000 0.000000 -0.380454
v -0.182744 0.410414 0.005228
v 0.000000 0.266998 -0.143440
v 0.182744 0.410414 0.005228
v 0.000000 0.000000 -0.380454
v 0.251293 0.145084 -0.202138
v 0.000000 0.000000 -0.380454
v 0.182744 0.410414 0.005228
v -0.251293 0.145084 -0.202138
v -0.182744 0.410414 0.005228
v 0.000000 0.000000 -0.380454
v -0.408747 0.316801 0.005228
v -0.182744 0.410414 0.005228
v -0.251293 0.145084 -0.202138
v -0.408747 0.316801 0.005228
v -0.251293 0.145084 -0.202138
v -0.478731 0.195585 0.005228
v -0.478731 0.195585 0.005228
v -0.251293 0.145084 -0.202138
v -0.446801 -0.046946 0.005228
v -0.251293 0.145084 -0.202138
v 0.000000 0.000000 -0.380454
v -0.446801 -0.046946 0.005228
v -0.231227 -0.133499 -0.143440
v -0.446801 -0.046946 0.005228
v 0.000000 0.000000 -0.380454
v -0.231227 -0.133499 -0.143440
v -0.264057 -0.363468 0.005227
v -0.446801 -0.046946 0.005228
v 0.000000 -0.290168 -0.202138
v -0.264057 -0.363468 0.005227
v 0.000000 0.000000 -0.380454
v -0.069984 -0.512385 0.005227
v -0.264057 -0.363468 0.005227
v 0.000000 -0.290168 -0.202138
v 0.000000 -0.290168 -0.202138
v 0.069984 -0.512385 0.005227
v -0.069984 -0.512385 0.005227
v 0.069984 -0.512385 0.005227
v 0.000000 -0.290168 -0.202138
v 0.264057 -0.363468 0.005227
v -0.231227 -0.133499 -0.143440
v 0.000000 0.000000 -0.380454
v -0.264057 -0.363468 0.005227
vt 0.562733 0.408590
vt 0.683740 0.200435
vt 0.441725 0.200435
vt 0.405548 0.626698
vt 0.284541 0.559514
vt 0.163533 0.626698
vt 0.992169 0.517926
vt 0.853762 0.517926
vt 0.858469 0.578759
vt 0.952492 0.617546
vt 0.927791 0.296004
vt 0.997835 0.376326
vt 0.997835 0.215683
vt 0.987463 0.473966
vt 0.853762 0.413133
vt 0.893440 0.512753
vt 0.992169 0.413133
vt 0.729146 0.347317
vt 0.814211 0.292510
vt 0.707464 0.292510
vt 0.249400 0.056043
vt 0.308082 0.000615
vt 0.249400 0.006708
vt 0.193595 0.031375
vt 0.308082 0.062135
vt 0.902876 0.347317
vt 0.924558 0.292510
vt 0.817811 0.292510
vt 0.843097 0.727512
vt 0.706126 0.727512
vt 0.710784 0.788345
vt 0.803832 0.827132
vt 0.788324 0.285828
vt 0.868646 0.214787
vt 0.708003 0.214787
vt 0.315145 0.359440
vt 0.435434 0.292256
vt 0.194855 0.292256
vt 0.844548 0.517926
vt 0.706141 0.517926
vt 0.745818 0.617546
vt 0.839841 0.578759
vt 0.000548 0.404265
vt 0.055355 0.489945
vt 0.055355 0.382426
vt 0.162258 0.483263
vt 0.220940 0.477171
vt 0.220940 0.427836
vt 0.162258 0.421743
vt 0.276746 0.452503
vt 0.081105 0.468106
vt 0.135911 0.489945
vt 0.135911 0.382426
vt 0.844548 0.413133
vt 0.706141 0.413133
vt 0.710847 0.473966
vt 0.804871 0.512753
vt 0.521233 0.829148
vt 0.601555 0.759544
vt 0.440911 0.759544
vt 0.315145 0.269674
vt 0.435434 0.202489
vt 0.194855 0.202489
vt 0.838440 0.683552
vt 0.706126 0.622719
vt 0.745392 0.722339
vt 0.843097 0.622719
vt 0.839494 0.407404
vt 0.924558 0.352598
vt 0.817811 0.352598
vt 0.308082 0.163044
vt 0.308082 0.101524
vt 0.249400 0.107616
vt 0.193595 0.132284
vt 0.249400 0.156952
vt 0.792529 0.407404
vt 0.814211 0.352598
vt 0.707464 0.352598
vt 0.537517 0.426896
vt 0.537517 0.420249
vt 0.599037 0.420249
vt 0.599037 0.426896
vt 0.161113 0.389463
vt 0.161113 0.381351
vt 0.268632 0.381351
vt 0.268632 0.389463
vt 0.161113 0.399407
vt 0.161113 0.391295
vt 0.321756 0.391295
vt 0.321756 0.399407
vt 0.537517 0.475568
vt 0.537517 0.468921
vt 0.645036 0.468921
vt 0.645036 0.475568
vt 0.537517 0.418784
vt 0.537517 0.412137
vt 0.599037 0.412137
vt 0.599037 0.418784
vt 0.537517 0.467456
vt 0.537517 0.460809
vt 0.645036 0.460809
vt 0.645036 0.467456
vt 0.161113 0.419296
vt 0.161113 0.411184
vt 0.321756 0.411184
vt 0.321756 0.419296
vt 0.537517 0.451232
vt 0.537517 0.444585
vt 0.645036 0.444585
vt 0.645036 0.451232
vt 0.537517 0.435008
vt 0.537517 0.428361
vt 0.599037 0.428361
vt 0.599037 0.435008
vt 0.537517 0.443120
vt 0.537517 0.436473
vt 0.645036 0.436473
vt 0.645036 0.443120
vt 0.161113 0.409351
vt 0.161113 0.401239
vt 0.321756 0.401239
vt 0.321756 0.409351
vt 0.537517 0.459344
vt 0.537517 0.452697
vt 0.645036 0.452697
vt 0.645036 0.459344
vt 0.097133 0.266733
vt 0.187925 0.347054
vt 0.187925 0.186411
vt 0.552327 0.617293
vt 0.700704 0.570113
vt 0.441893 0.570113
vt 0.000754 0.644844
vt 0.076114 0.775749
vt 0.076114 0.515502
vt 0.312916 0.547155
vt 0.423962 0.498539
vt 0.163715 0.498539
vt 0.570521 0.693893
vt 0.441893 0.619969
vt 0.700704 0.619969
vt 0.945948 0.821798
vt 0.997039 0.727460
vt 0.847428 0.727460
vt 0.831051 0.060551
vt 0.844855 0.000600
vt 0.707767 0.000600
vt 0.440248 0.465229
vt 0.534586 0.564694
vt 0.534586 0.413647
vt 0.699766 0.567283
vt 0.619445 0.477926
vt 0.539123 0.567283
vt 0.552954 0.097240
vt 0.702154 0.050060
vt 0.441907 0.050060
vt 0.591108 0.146829
vt 0.702154 0.099649
vt 0.441907 0.099649
vt 0.839904 0.207569
vt 0.969246 0.132209
vt 0.708999 0.132209
vt 0.293057 0.813193
vt 0.423962 0.737833
vt 0.163715 0.737833
vt 0.097154 0.100976
vt 0.190056 0.152558
vt 0.190056 0.001510
vt 0.721571 0.126279
vt 0.844855 0.066327
vt 0.707767 0.066327
vt 0.000929 0.053092
vt 0.093831 0.152558
vt 0.093831 0.001510
vt 0.293057 0.718963
vt 0.163715 0.643603
vt 0.423962 0.643603
vt 0.591107 0.196417
vt 0.702154 0.149237
vt 0.441907 0.149237
vt 0.000908 0.266733
vt 0.091701 0.347054
vt 0.091701 0.186411
vt 0.081310 0.646407
vt 0.156670 0.515502
vt 0.156670 0.775749
vt 0.945948 0.717005
vt 0.997039 0.622667
vt 0.847428 0.622667
vt 0.440641 0.726740
vt 0.574233 0.756782
vt 0.574233 0.696698
vt 0.328730 0.053092
vt 0.423068 0.152558
vt 0.423068 0.001510
vt 0.552954 0.047652
vt 0.702154 0.000472
vt 0.441907 0.000472
vn 0.0000 -0.0000 1.0000
vn 0.0000 0.3478 0.9376
vn 0.1606 0.5995 0.7841
vn 0.0000 0.7431 0.6691
vn -0.1606 0.5995 0.7841
vn -0.2726 0.6581 0.7019
vn -0.5761 0.3326 0.7466
vn -0.7062 -0.0930 0.7019
vn -0.5995 -0.1606 0.7841
vn -0.6436 -0.3716 0.6691
vn -0.3012 -0.1739 0.9376
vn -0.4388 -0.4388 0.7841
vn -0.4336 -0.5651 0.7019
vn 0.0000 -0.6652 0.7466
vn 0.4336 -0.5651 0.7019
vn 0.4388 -0.4388 0.7841
vn 0.6436 -0.3716 0.6691
vn 0.3012 -0.1739 0.9376
vn 0.5995 -0.1606 0.7841
vn 0.7062 -0.0930 0.7019
vn 0.5761 0.3326 0.7466
vn 0.2726 0.6581 0.7019
vn 0.8660 0.5000 0.0000
vn 0.3827 0.9239 0.0000
vn 0.0000 1.0000 0.0000
vn -0.3827 0.9239 0.0000
vn -0.8660 0.5000 0.0000
vn -0.9914 -0.1305 -0.0000
vn -0.8660 -0.5000 0.0000
vn -0.6088 -0.7934 0.0000
vn 0.0000 -1.0000 0.0000
vn 0.6088 -0.7934 0.0000
vn 0.8660 -0.5000 0.0000
vn 0.9914 -0.1305 -0.0000
vn 0.6233 -0.3599 -0.6943
vn 0.6163 -0.2553 -0.7450
vn 0.6336 -0.1699 -0.7547
vn 0.5292 -0.4061 -0.7450
vn 0.4640 -0.4638 -0.7547
vn 0.6818 -0.0898 -0.7260
vn 0.5908 0.3411 -0.7311
vn 0.2632 0.6354 -0.7260
vn 0.0000 0.7197 -0.6943
vn -0.0871 0.6613 -0.7450
vn 0.0871 0.6613 -0.7450
vn 0.1697 0.6337 -0.7547
vn -0.1697 0.6337 -0.7547
vn -0.2632 0.6354 -0.7260
vn -0.5908 0.3411 -0.7311
vn -0.6818 -0.0898 -0.7260
vn -0.6336 -0.1699 -0.7547
vn -0.6163 -0.2553 -0.7450
vn -0.6233 -0.3599 -0.6943
vn -0.4640 -0.4638 -0.7547
vn -0.4187 -0.5456 -0.7260
vn 0.0000 -0.6823 -0.7311
vn 0.4187 -0.5456 -0.7260
vn -0.5292 -0.4061 -0.7450
usemtl Default_OBJ
s 1
f 1/1/1 2/2/1 3/3/1
f 4/4/2 5/5/2 6/6/2
f 7/7/3 8/8/3 9/9/3
f 9/9/3 10/10/3 7/7/3
f 11/11/4 12/12/4 13/13/4
f 14/14/5 15/15/5 16/16/5
f 15/15/5 14/14/5 17/17/5
f 18/18/6 19/19/6 20/20/6
f 21/21/7 22/22/7 23/23/7
f 24/24/7 21/21/7 23/23/7
f 25/25/7 22/22/7 21/21/7
f 26/26/8 27/27/8 28/28/8
f 29/29/9 30/30/9 31/31/9
f 31/31/9 32/32/9 29/29/9
f 33/33/10 34/34/10 35/35/10
f 36/36/11 37/37/11 38/38/11
f 39/39/12 40/40/12 41/41/12
f 41/41/12 42/42/12 39/39/12
f 43/43/13 44/44/13 45/45/13
f 46/46/14 47/47/14 48/48/14 49/49/14
f 50/50/14 48/48/14 47/47/14
f 51/51/15 52/52/15 53/53/15
f 54/54/16 55/55/16 56/56/16
f 56/56/16 57/57/16 54/54/16
f 58/58/17 59/59/17 60/60/17
f 61/61/18 62/62/18 63/63/18
f 64/64/19 65/65/19 66/66/19
f 65/65/19 64/64/19 67/67/19
f 68/68/20 69/69/20 70/70/20
f 71/71/21 72/72/21 73/73/21
f 74/74/21 75/75/21 73/73/21
f 71/71/21 73/73/21 75/75/21
f 76/76/22 77/77/22 78/78/22
f 79/79/23 80/80/23 81/81/23 82/82/23
f 83/83/24 84/84/24 85/85/24 86/86/24
f 87/87/25 88/88/25 89/89/25 90/90/25
f 91/91/26 92/92/26 93/93/26 94/94/26
f 95/95/27 96/96/27 97/97/27 98/98/27
f 99/99/28 100/100/28 101/101/28 102/102/28
f 103/103/29 104/104/29 105/105/29 106/106/29
f 107/107/30 108/108/30 109/109/30 110/110/30
f 111/111/31 112/112/31 113/113/31 114/114/31
f 115/115/32 116/116/32 117/117/32 118/118/32
f 119/119/33 120/120/33 121/121/33 122/122/33
f 123/123/34 124/124/34 125/125/34 126/126/34
f 127/127/35 128/128/35 129/129/35
f 130/130/36 131/131/36 132/132/36
f 133/133/37 134/134/37 135/135/37
f 136/136/38 137/137/38 138/138/38
f 139/139/39 140/140/39 141/141/39
f 142/142/40 143/143/40 144/144/40
f 145/145/41 146/146/41 147/147/41
f 148/148/42 149/149/42 150/150/42
f 151/151/43 152/152/43 153/153/43
f 154/154/44 155/155/44 156/156/44
f 157/157/45 158/158/45 159/159/45
f 160/160/46 161/161/46 162/162/46
f 163/163/47 164/164/47 165/165/47
f 166/166/48 167/167/48 168/168/48
f 169/169/49 170/170/49 171/171/49
f 172/172/50 173/173/50 174/174/50
f 175/175/51 176/176/51 177/177/51
f 178/178/52 179/179/52 180/180/52
f 181/181/53 182/182/53 183/183/53
f 184/184/54 185/185/54 186/186/54
f 187/187/55 188/188/55 189/189/55
f 190/190/56 191/191/56 192/192/56
f 193/193/57 194/194/57 195/195/57
f 196/196/58 197/197/58 198/198/58
