# Blender v2.92.0 OBJ File: 'diamonds.blend'
# www.blender.org
mtllib diamond_brillant_cut.mtl
o Cylinder.018_Cylinder.027
v -0.000000 0.032468 -0.346647
v 0.000000 0.238436 0.265394
v -0.015466 0.037338 -0.346647
v -0.022958 0.022958 -0.346647
v -0.168600 0.168600 0.265394
v -0.037338 0.015466 -0.346647
v -0.032468 0.000000 -0.346647
v -0.238436 -0.000000 0.265394
v -0.037338 -0.015466 -0.346647
v -0.022958 -0.022958 -0.346647
v -0.168600 -0.168600 0.265394
v -0.015466 -0.037338 -0.346647
v -0.000000 -0.032468 -0.346647
v -0.000000 -0.238436 0.265394
v 0.015466 -0.037338 -0.346647
v 0.022958 -0.022958 -0.346647
v 0.168600 -0.168600 0.265394
v 0.037338 -0.015466 -0.346647
v 0.032468 0.000000 -0.346647
v 0.238436 -0.000000 0.265394
v 0.037338 0.015466 -0.346647
v 0.022958 0.022958 -0.346647
v 0.168599 0.168600 0.265394
v 0.015466 0.037338 -0.346647
v -0.178738 0.431511 0.117064
v 0.000000 0.467064 0.117064
v -0.330264 0.330264 0.117064
v -0.431511 0.178738 0.117064
v -0.467064 -0.000000 0.117064
v -0.431511 -0.178738 0.117064
v -0.330264 -0.330264 0.117064
v -0.178738 -0.431511 0.117064
v -0.000000 -0.467064 0.117064
v 0.178738 -0.431511 0.117064
v 0.330264 -0.330264 0.117064
v 0.431511 -0.178738 0.117064
v 0.467064 -0.000000 0.117064
v 0.431511 0.178738 0.117064
v 0.330264 0.330264 0.117064
v 0.178737 0.431511 0.117064
v -0.133344 0.321922 0.220365
v -0.321922 0.133344 0.220365
v -0.321922 -0.133344 0.220365
v -0.133344 -0.321922 0.220365
v 0.133344 -0.321922 0.220365
v 0.321922 -0.133344 0.220365
v 0.321922 0.133344 0.220365
v 0.133344 0.321922 0.220365
v -0.031709 0.076551 -0.300515
v -0.076551 0.031709 -0.300515
v -0.076551 -0.031709 -0.300515
v -0.031709 -0.076551 -0.300515
v 0.031709 -0.076551 -0.300515
v 0.076551 -0.031709 -0.300515
v 0.076551 0.031709 -0.300515
v 0.031709 0.076551 -0.300515
v 0.000000 0.465347 0.102282
v -0.178081 0.429925 0.102282
v -0.329050 0.329050 0.102282
v -0.429925 0.178081 0.102282
v -0.465347 -0.000000 0.102282
v -0.429925 -0.178081 0.102282
v -0.329050 -0.329050 0.102282
v -0.178081 -0.429925 0.102282
v -0.000000 -0.465347 0.102282
v 0.178081 -0.429925 0.102282
v 0.329050 -0.329050 0.102282
v 0.429925 -0.178081 0.102282
v 0.465347 -0.000000 0.102282
v 0.429925 0.178081 0.102282
v 0.329050 0.329050 0.102282
v 0.178080 0.429925 0.102282
vt 0.584140 0.925227
vt 0.587689 0.918838
vt 0.515087 0.877739
vt 0.511271 0.883976
vt 0.461568 0.842390
vt 0.988436 0.719038
vt 0.992570 0.801003
vt 1.000000 0.800839
vt 0.992570 0.889721
vt 1.000000 0.889884
vt 0.988436 0.971685
vt 0.462631 0.649142
vt 0.508737 0.604911
vt 0.503831 0.599451
vt 0.572548 0.551648
vt 0.644350 0.497464
vt 0.639944 0.491608
vt 0.713211 0.450607
vt 0.709060 0.444579
vt 0.768648 0.418211
vt 0.004013 0.605269
vt 0.057533 0.569920
vt 0.053717 0.563683
vt 0.130134 0.528821
vt 0.126586 0.522433
vt 0.210764 0.488229
vt 0.207513 0.481690
vt 0.287148 0.454323
vt 0.741734 1.000000
vt 0.744703 0.993337
vt 0.668319 0.959431
vt 0.665068 0.965969
vt 0.664273 0.214193
vt 0.634887 0.219912
vt 0.666694 0.226102
vt 0.183271 0.447659
vt 0.262727 0.390814
vt 0.205546 0.338095
vt 0.327788 0.159104
vt 0.345568 0.246558
vt 0.399453 0.190614
vt 0.252009 0.109565
vt 0.325458 0.082267
vt 0.162621 0.126961
vt 0.194828 0.056845
vt 0.111987 0.201101
vt 0.084086 0.129241
vt 0.373470 0.318419
vt 0.294934 0.320699
vt 0.129767 0.288556
vt 0.132097 0.365392
vt 0.058102 0.257045
vt 0.034829 0.350619
vt 0.000000 0.179307
vt 0.099185 0.034076
vt 0.274284 0.000000
vt 0.422726 0.097040
vt 0.457555 0.268352
vt 0.358370 0.413583
vt 0.274284 0.447659
vt 0.099185 0.413583
vt 0.000000 0.268352
vt 0.034829 0.097040
vt 0.183271 0.000000
vt 0.358369 0.034076
vt 0.457555 0.179307
vt 0.422726 0.350619
vt 0.736781 0.749573
vt 0.279226 0.698086
vt 0.642717 0.183299
vt 0.521675 0.033951
vt 0.641782 0.209816
vt 0.616383 0.200514
vt 0.457555 0.096684
vt 0.762720 0.683412
vt 0.762338 0.714689
vt 0.737674 0.701404
vt 0.610204 0.230905
vt 0.457555 0.349330
vt 0.637308 0.231821
vt 0.627800 0.256670
vt 0.521675 0.412063
vt 0.769783 0.867855
vt 0.744703 0.848457
vt 0.770519 0.837463
vt 0.658863 0.262715
vt 0.779906 0.412063
vt 0.659799 0.236198
vt 0.685197 0.245500
vt 0.844026 0.349330
vt 0.709497 0.735028
vt 0.738601 0.722085
vt 0.691376 0.215109
vt 0.844026 0.096684
vt 0.673780 0.189344
vt 0.662004 0.206588
vt 0.251942 0.712632
vt 0.273841 0.729087
vt 0.281047 0.725574
vt 0.634008 0.212036
vt 0.605451 0.000000
vt 0.756432 0.718573
vt 0.639577 0.239426
vt 0.745167 0.841509
vt 0.667572 0.233978
vt 0.744703 0.725667
vt 0.457555 0.848497
vt 0.995851 0.718572
vt 0.995851 0.972151
vt 0.457555 0.643846
vt 0.567878 0.545992
vt 0.764701 0.412063
vt 0.000000 0.599162
vt 0.284179 0.447659
vt 0.647627 0.238566
vt 0.654728 0.242374
vt 0.630995 0.226859
vt 0.653954 0.207448
vt 0.646853 0.203640
vt 0.670586 0.219155
vt 0.768648 0.709798
vt 0.744808 0.856333
vt 0.731396 0.718572
vt 0.287148 0.721992
vn -0.1938 0.9745 -0.1132
vn -0.5520 0.8261 -0.1132
vn -0.8261 0.5520 -0.1132
vn -0.9745 0.1938 -0.1132
vn -0.9745 -0.1938 -0.1132
vn -0.8261 -0.5520 -0.1132
vn -0.5520 -0.8261 -0.1132
vn -0.1938 -0.9745 -0.1132
vn 0.1938 -0.9745 -0.1132
vn 0.5520 -0.8261 -0.1132
vn 0.8261 -0.5520 -0.1132
vn 0.9745 -0.1938 -0.1132
vn 0.9745 0.1938 -0.1132
vn 0.8261 0.5520 -0.1132
vn 0.5520 0.8261 -0.1132
vn 0.1938 0.9745 -0.1132
vn 0.0000 0.0000 -1.0000
vn 0.5434 -0.0574 0.8375
vn -0.1269 0.3063 0.9435
vn -0.3063 0.1269 0.9435
vn -0.3063 -0.1269 0.9435
vn -0.1269 -0.3063 0.9435
vn -0.0000 0.0000 1.0000
vn 0.1269 0.3063 0.9435
vn 0.3063 0.1269 0.9435
vn 0.3063 -0.1269 0.9435
vn 0.1269 -0.3063 0.9435
vn 0.3436 -0.4248 0.8375
vn -0.0574 -0.5434 0.8375
vn -0.4248 -0.3436 0.8375
vn -0.5434 0.0574 0.8375
vn -0.3436 0.4248 0.8375
vn 0.0574 0.5434 0.8375
vn 0.4248 0.3436 0.8375
vn 0.5521 0.3689 0.7478
vn 0.6512 0.1295 0.7478
vn 0.6512 -0.1295 0.7478
vn 0.5521 -0.3689 0.7478
vn 0.3689 -0.5521 0.7478
vn 0.1295 -0.6512 0.7478
vn -0.1295 -0.6512 0.7478
vn -0.3689 -0.5521 0.7478
vn -0.5521 -0.3689 0.7478
vn -0.6512 -0.1295 0.7478
vn -0.6512 0.1295 0.7478
vn -0.5521 0.3689 0.7478
vn -0.3689 0.5521 0.7478
vn -0.1295 0.6512 0.7478
vn 0.1295 0.6512 0.7478
vn 0.3689 0.5521 0.7478
vn 0.1428 0.7177 -0.6815
vn 0.6085 0.4066 -0.6815
vn 0.7177 0.1428 -0.6815
vn 0.5154 -0.5026 -0.6941
vn 0.4066 -0.6085 -0.6815
vn 0.0091 -0.7198 -0.6941
vn -0.1428 -0.7177 -0.6815
vn -0.5026 -0.5154 -0.6941
vn -0.6085 -0.4066 -0.6815
vn -0.7198 -0.0091 -0.6941
vn -0.7177 0.1428 -0.6815
vn -0.5154 0.5026 -0.6941
vn -0.4066 0.6085 -0.6815
vn -0.0091 0.7198 -0.6941
vn 0.5026 0.5154 -0.6941
vn -0.1428 0.7177 -0.6815
vn 0.3777 0.7248 -0.5762
vn 0.4066 0.6085 -0.6815
vn 0.7796 0.2455 -0.5762
vn 0.7177 -0.1428 -0.6815
vn 0.7248 -0.3777 -0.5762
vn 0.6085 -0.4066 -0.6815
vn 0.2455 -0.7796 -0.5762
vn 0.1428 -0.7177 -0.6815
vn -0.3777 -0.7248 -0.5762
vn -0.4066 -0.6085 -0.6815
vn -0.7796 -0.2455 -0.5762
vn -0.7177 -0.1428 -0.6815
vn -0.7248 0.3777 -0.5762
vn -0.6085 0.4066 -0.6815
vn -0.2455 0.7796 -0.5762
vn 0.7198 0.0091 -0.6941
vn 0.5434 0.0574 0.8375
vn 0.4248 -0.3436 0.8375
vn 0.0574 -0.5434 0.8375
vn -0.3436 -0.4248 0.8375
vn -0.5434 -0.0574 0.8375
vn -0.4248 0.3436 0.8375
vn -0.0574 0.5434 0.8375
vn 0.3436 0.4248 0.8375
vn 0.3777 -0.7248 -0.5762
vn -0.2455 -0.7796 -0.5762
vn -0.7248 -0.3777 -0.5762
vn -0.7796 0.2455 -0.5762
vn -0.3777 0.7248 -0.5762
vn 0.2455 0.7796 -0.5762
vn 0.7248 0.3777 -0.5762
vn 0.5154 0.5026 -0.6941
vn 0.7198 -0.0091 -0.6941
vn 0.5026 -0.5154 -0.6941
vn -0.0091 -0.7198 -0.6941
vn -0.5154 -0.5026 -0.6941
vn -0.7198 0.0091 -0.6941
vn -0.5026 0.5154 -0.6941
vn 0.0091 0.7198 -0.6941
vn 0.7796 -0.2455 -0.5762
usemtl Diamond_violet
s off
f 26/1/1 57/2/1 58/3/1
f 25/4/2 58/3/2 59/5/2
f 59/6/3 60/7/3 28/8/3
f 28/8/4 60/7/4 61/9/4
f 29/10/5 61/9/5 62/11/5
f 62/12/6 63/13/6 31/14/6
f 31/14/7 63/13/7 64/15/7
f 64/15/8 65/16/8 33/17/8
f 33/17/9 65/16/9 66/18/9
f 34/19/10 66/18/10 67/20/10
f 67/21/11 68/22/11 36/23/11
f 68/22/12 69/24/12 37/25/12
f 37/25/13 69/24/13 70/26/13
f 38/27/14 70/26/14 71/28/14
f 39/29/15 71/30/15 72/31/15
f 40/32/16 72/31/16 57/2/16
f 22/33/17 13/34/17 1/35/17
f 37/36/18 47/37/18 20/38/18
f 5/39/19 2/40/19 41/41/19
f 8/42/20 5/39/20 42/43/20
f 11/44/21 8/42/21 43/45/21
f 14/46/22 11/44/22 44/47/22
f 14/46/23 2/40/23 8/42/23
f 48/48/24 2/40/24 23/49/24
f 47/37/25 23/49/25 20/38/25
f 20/38/26 17/50/26 46/51/26
f 17/50/27 14/46/27 45/52/27
f 35/53/28 46/51/28 17/50/28
f 33/54/29 45/52/29 14/46/29
f 31/55/30 44/47/30 11/44/30
f 29/56/31 43/45/31 8/42/31
f 27/57/32 42/43/32 5/39/32
f 26/58/33 41/41/33 2/40/33
f 39/59/34 48/48/34 23/49/34
f 38/60/35 39/59/35 47/37/35
f 38/60/36 47/37/36 37/36/36
f 36/61/37 37/36/37 46/51/37
f 36/61/38 46/51/38 35/53/38
f 34/62/39 35/53/39 45/52/39
f 34/62/40 45/52/40 33/54/40
f 32/63/41 33/54/41 44/47/41
f 32/63/42 44/47/42 31/55/42
f 30/64/43 31/55/43 43/45/43
f 30/64/44 43/45/44 29/56/44
f 28/65/45 29/56/45 42/43/45
f 28/65/46 42/43/46 27/57/46
f 25/66/47 27/57/47 41/41/47
f 25/66/48 41/41/48 26/58/48
f 40/67/49 26/58/49 48/48/49
f 40/67/50 48/48/50 39/59/50
f 56/68/51 57/2/51 72/31/51
f 55/69/52 71/28/52 70/26/52
f 70/26/53 69/24/53 55/69/53
f 54/70/54 67/71/54 16/72/54
f 53/73/55 67/71/55 66/74/55
f 53/75/56 65/16/56 13/76/56
f 52/77/57 65/16/57 64/15/57
f 52/78/58 63/79/58 10/80/58
f 51/81/59 63/79/59 62/82/59
f 51/83/60 61/9/60 7/84/60
f 50/85/61 61/9/61 60/7/61
f 50/86/62 59/87/62 4/88/62
f 49/89/63 59/87/63 58/90/63
f 49/91/64 57/2/64 1/92/64
f 56/93/65 71/94/65 22/33/65
f 58/3/66 57/2/66 49/91/66
f 55/95/67 21/96/67 22/33/67
f 72/31/68 71/30/68 56/68/68
f 54/97/69 18/98/69 19/99/69
f 54/97/70 69/24/70 68/22/70
f 53/73/71 15/100/71 16/72/71
f 68/101/72 67/71/72 54/70/72
f 52/77/73 12/102/73 13/76/73
f 66/18/74 65/16/74 53/75/74
f 51/81/75 9/103/75 10/80/75
f 64/15/76 63/13/76 52/77/76
f 50/85/77 6/104/77 7/84/77
f 62/11/78 61/9/78 51/83/78
f 49/89/79 3/105/79 4/88/79
f 60/7/80 59/6/80 50/85/80
f 56/68/81 24/106/81 1/92/81
f 55/69/82 69/24/82 19/99/82
f 26/1/1 58/3/1 25/4/1
f 25/4/2 59/5/2 27/107/2
f 59/6/3 28/8/3 27/108/3
f 28/8/4 61/9/4 29/10/4
f 29/10/5 62/11/5 30/109/5
f 62/12/6 31/14/6 30/110/6
f 31/14/7 64/15/7 32/111/7
f 64/15/8 33/17/8 32/111/8
f 33/17/9 66/18/9 34/19/9
f 34/19/10 67/20/10 35/112/10
f 67/21/11 36/23/11 35/113/11
f 68/22/12 37/25/12 36/23/12
f 37/25/13 70/26/13 38/27/13
f 38/27/14 71/28/14 39/114/14
f 39/29/15 72/31/15 40/32/15
f 40/32/16 57/2/16 26/1/16
f 1/35/17 4/88/17 3/105/17
f 4/88/17 7/115/17 6/116/17
f 7/115/17 10/80/17 9/103/17
f 10/80/17 13/34/17 12/117/17
f 13/34/17 16/72/17 15/100/17
f 16/72/17 19/118/17 18/119/17
f 19/118/17 22/33/17 21/96/17
f 22/33/17 1/35/17 24/120/17
f 1/35/17 13/34/17 4/88/17
f 4/88/17 13/34/17 7/115/17
f 7/115/17 13/34/17 10/80/17
f 13/34/17 19/118/17 16/72/17
f 19/118/17 13/34/17 22/33/17
f 37/36/83 20/38/83 46/51/83
f 2/40/23 20/38/23 23/49/23
f 20/38/23 14/46/23 17/50/23
f 14/46/23 8/42/23 11/44/23
f 8/42/23 2/40/23 5/39/23
f 2/40/23 14/46/23 20/38/23
f 35/53/84 17/50/84 45/52/84
f 33/54/85 14/46/85 44/47/85
f 31/55/86 11/44/86 43/45/86
f 29/56/87 8/42/87 42/43/87
f 27/57/88 5/39/88 41/41/88
f 26/58/89 2/40/89 48/48/89
f 39/59/90 23/49/90 47/37/90
f 54/70/91 16/72/91 18/119/91
f 53/75/92 13/76/92 15/121/92
f 52/78/93 10/80/93 12/117/93
f 51/83/94 7/84/94 9/122/94
f 50/86/95 4/88/95 6/116/95
f 49/91/96 1/92/96 3/123/96
f 56/93/97 22/33/97 24/120/97
f 55/95/98 22/33/98 71/94/98
f 54/97/99 19/99/99 69/24/99
f 53/73/100 16/72/100 67/71/100
f 52/77/101 13/76/101 65/16/101
f 51/81/102 10/80/102 63/79/102
f 50/85/103 7/84/103 61/9/103
f 49/89/104 4/88/104 59/87/104
f 56/68/105 1/92/105 57/2/105
f 55/69/106 19/99/106 21/124/106
